<svg width="19" height="25" viewBox="0 0 19 25" fill="none" xmlns="http://www.w3.org/2000/svg">
<path d="M1.40233 9.23181C1.30901 4.98655 4.59095 1.542 8.65061 1.22474C12.788 0.907476 16.3655 3.67218 17.0966 7.43399C17.4543 9.29224 17.1432 11.0749 16.1789 12.7217C14.1879 16.1209 12.1814 19.505 10.1749 22.9043C9.69275 23.7352 8.94615 23.7201 8.44841 22.8892C6.45746 19.505 4.45097 16.1209 2.46002 12.7368C1.77563 11.5735 1.38678 10.3045 1.40233 9.23181ZM9.31945 6.08941C7.35961 6.08941 5.74197 7.6455 5.75752 9.54907C5.77308 11.4224 7.37517 12.9785 9.30389 12.9785C11.2482 12.9785 12.8503 11.4375 12.8658 9.54907C12.8969 7.66061 11.2948 6.08941 9.31945 6.08941Z" stroke="#48464A" stroke-width="2"/>
</svg>
