<svg width="24" height="24" viewBox="0 0 24 24" fill="none" xmlns="http://www.w3.org/2000/svg">
<path d="M20.29 7.00048L19.6956 7.80465L19.7021 7.80939L20.29 7.00048ZM14.73 2.89048L15.3244 2.08632L15.3196 2.08281L14.73 2.89048ZM22 10.3305H23L23 10.324L22 10.3305ZM22 17.7705L22.9997 17.7956L23 17.783V17.7705H22ZM17.56 22.0005L17.5834 21.0008L17.5717 21.0005H17.56V22.0005ZM6.44 22.0005V21.0005H6.42832L6.41664 21.0008L6.44 22.0005ZM2 17.7705H1V17.783L1.00031 17.7956L2 17.7705ZM2 10.3405L1 10.3359V10.3405H2ZM3.72 7.00048L4.30458 7.81192L4.31512 7.80412L3.72 7.00048ZM9.27 2.89048L8.68035 2.08279L8.67488 2.08685L9.27 2.89048ZM20.8844 6.19633L15.3244 2.08634L14.1356 3.69463L19.6956 7.80463L20.8844 6.19633ZM23 10.324C22.9893 8.6876 22.2016 7.15367 20.8779 6.19157L19.7021 7.80939C20.5117 8.39786 20.9935 9.33609 21 10.337L23 10.324ZM23 17.7705V10.3305H21V17.7705H23ZM17.5366 23.0002C20.4815 23.069 22.9258 20.7402 22.9997 17.7956L21.0003 17.7454C20.9541 19.5872 19.4252 21.0438 17.5834 21.0008L17.5366 23.0002ZM6.44 23.0005H17.56V21.0005H6.44V23.0005ZM1.00031 17.7956C1.07417 20.7402 3.51854 23.069 6.46336 23.0002L6.41664 21.0008C4.57476 21.0438 3.04588 19.5872 2.99969 17.7454L1.00031 17.7956ZM1 10.3405V17.7705H3V10.3405H1ZM3.13547 6.18911C1.80136 7.15023 1.00759 8.69162 1.00001 10.3359L2.99999 10.3451C3.00462 9.34063 3.48953 8.399 4.30453 7.81185L3.13547 6.18911ZM8.67488 2.08685L3.12488 6.19685L4.31512 7.80412L9.86512 3.69412L8.67488 2.08685ZM15.3196 2.08281C13.342 0.639063 10.658 0.639063 8.68037 2.08281L9.85963 3.69815C11.1347 2.76728 12.8653 2.76728 14.1404 3.69815L15.3196 2.08281Z" fill="#F36527"/>
</svg>
