<?xml version="1.0" standalone="no"?>
<!DOCTYPE svg PUBLIC "-//W3C//DTD SVG 20010904//EN"
 "http://www.w3.org/TR/2001/REC-SVG-20010904/DTD/svg10.dtd">
<svg version="1.0" xmlns="http://www.w3.org/2000/svg"
 width="512.000000pt" height="512.000000pt" viewBox="0 0 512.000000 512.000000"
 preserveAspectRatio="xMidYMid meet">
<metadata>
Created by potrace 1.16, written by Peter Selinger 2001-2019
</metadata>
<g transform="translate(0.000000,512.000000) scale(0.100000,-0.100000)"
fill="#F36527" stroke="none">
<path d="M1700 5091 c0 -26 -4 -29 -42 -35 -24 -4 -84 -27 -134 -51 -74 -36
-103 -57 -160 -117 -88 -93 -142 -197 -219 -418 -31 -91 -72 -197 -91 -237
-55 -115 -125 -161 -389 -253 -261 -91 -367 -149 -463 -255 -55 -60 -126 -193
-137 -257 -6 -34 -11 -38 -36 -38 -29 0 -29 -1 -29 -60 l0 -60 30 0 c22 0 30
-5 30 -18 0 -37 52 -171 129 -332 110 -229 122 -261 128 -360 8 -122 -16 -206
-125 -436 -85 -178 -132 -302 -132 -345 0 -14 -7 -19 -30 -19 -30 0 -30 -1
-30 -55 0 -54 1 -55 29 -55 25 0 30 -4 36 -37 10 -58 77 -192 122 -246 88
-105 191 -164 453 -257 96 -34 207 -77 247 -96 116 -55 161 -124 253 -389 80
-233 139 -344 230 -436 59 -61 93 -85 160 -117 47 -22 102 -44 123 -47 33 -6
37 -11 37 -36 0 -29 1 -29 60 -29 l60 0 0 30 c0 23 5 30 19 30 36 0 185 59
351 138 242 116 247 117 375 117 134 0 175 -13 394 -120 152 -75 305 -135 342
-135 14 0 19 -7 19 -30 l0 -30 60 0 c59 0 60 0 60 29 0 26 4 29 44 35 69 11
176 68 244 131 113 104 180 227 276 504 26 74 60 163 77 198 50 104 126 153
384 243 263 93 367 150 463 255 55 60 126 193 137 258 6 33 11 37 36 37 29 0
29 1 29 60 l0 60 -30 0 c-23 0 -30 5 -30 19 0 33 -60 191 -110 292 -27 52 -70
145 -96 205 l-48 109 0 115 c0 139 9 167 129 420 78 166 125 289 125 331 0 14
7 19 30 19 29 0 30 1 30 50 0 48 -1 50 -29 50 -26 0 -29 4 -35 42 -10 59 -76
194 -123 251 -88 105 -191 164 -453 257 -96 34 -207 77 -247 96 -116 55 -161
124 -253 389 -28 83 -75 197 -103 255 -42 86 -65 118 -127 181 -80 81 -198
150 -279 164 -37 6 -41 10 -41 36 0 29 0 29 -60 29 l-60 0 0 -30 c0 -23 -4
-30 -20 -30 -39 0 -146 -42 -320 -125 -217 -104 -275 -125 -370 -132 -105 -7
-201 16 -344 83 -268 125 -316 145 -385 162 -66 16 -71 19 -71 45 0 26 -2 27
-50 27 -48 0 -50 -1 -50 -29z m192 -263 c29 -7 125 -48 213 -91 202 -99 282
-131 379 -152 128 -26 198 -6 526 150 96 45 193 88 215 94 22 6 90 11 151 11
98 0 116 -3 162 -26 100 -50 143 -121 232 -379 81 -236 135 -339 224 -433 59
-62 86 -81 171 -122 55 -27 154 -67 220 -90 66 -23 170 -65 231 -95 90 -44
121 -64 162 -110 61 -66 72 -100 72 -217 0 -107 -18 -161 -141 -418 -133 -279
-156 -392 -109 -529 12 -36 57 -139 100 -231 116 -248 134 -307 134 -460 1
-110 -2 -130 -21 -166 -46 -87 -115 -125 -386 -219 -230 -80 -330 -131 -423
-217 -64 -61 -82 -85 -124 -172 -27 -56 -79 -183 -114 -282 -78 -219 -102
-269 -155 -317 -68 -62 -94 -71 -217 -75 -142 -5 -178 5 -404 113 -196 94
-263 120 -364 140 -118 23 -190 3 -470 -130 -66 -31 -160 -71 -210 -88 -83
-29 -102 -31 -216 -32 -110 0 -130 3 -166 22 -87 46 -125 115 -219 386 -79
229 -131 330 -216 421 -84 90 -155 129 -391 215 -233 84 -310 124 -384 197
-73 71 -84 101 -84 226 0 107 19 163 143 423 130 273 154 388 108 524 -12 35
-56 136 -97 225 -42 88 -90 202 -107 251 -29 82 -31 101 -32 215 0 110 3 130
22 166 46 87 115 125 386 219 230 80 330 131 423 218 67 62 82 83 129 181 29
61 80 188 114 283 83 237 104 275 193 342 53 40 227 55 340 29z"/>
<path d="M2500 3963 c-22 -20 -85 -145 -223 -438 l-193 -410 -431 -66 c-463
-71 -480 -76 -517 -138 -17 -29 -17 -36 -5 -61 8 -16 155 -173 327 -349 298
-305 312 -321 312 -357 0 -21 -32 -235 -72 -477 -69 -425 -71 -439 -55 -473
19 -39 73 -77 100 -70 10 2 186 97 391 210 354 196 376 206 426 206 51 0 73
-10 426 -206 205 -113 381 -208 391 -210 27 -7 81 31 100 70 16 34 14 48 -55
473 -40 242 -72 456 -72 477 0 36 14 52 313 357 171 176 318 333 326 349 12
25 12 32 -5 62 -36 61 -72 71 -529 140 l-419 64 -193 409 c-203 432 -223 465
-283 465 -18 0 -41 -10 -60 -27z m250 -708 c139 -298 164 -336 227 -349 15 -3
150 -24 298 -46 149 -22 280 -42 293 -45 19 -5 22 -12 22 -60 l0 -55 -230
-234 c-128 -131 -232 -245 -235 -259 -4 -14 14 -151 39 -304 25 -154 46 -310
46 -346 l0 -67 -49 0 c-45 0 -74 13 -313 146 -145 81 -274 146 -288 146 -14 0
-143 -65 -287 -146 -241 -134 -267 -146 -313 -146 l-50 0 0 67 c0 36 21 192
46 346 25 155 43 290 39 305 -3 14 -104 124 -236 258 l-229 233 0 55 c0 50 2
56 23 60 12 3 146 24 297 46 151 23 289 46 307 51 18 6 45 25 60 42 15 18 86
157 157 310 l130 277 56 0 56 0 134 -285z"/>
</g>
</svg>
