<svg width="24" height="24" viewBox="0 0 24 24" fill="none" xmlns="http://www.w3.org/2000/svg">
<path fill-rule="evenodd" clip-rule="evenodd" d="M7.66933 19.9382C4.24469 18.512 2.01004 15.1704 2.00013 11.4607C1.97907 7.46246 4.54006 3.90737 8.3391 2.66105C12.1381 1.41473 16.3074 2.7619 18.6588 5.99558C21.0103 9.22927 21.0068 13.6107 18.6501 16.8407L21.5301 19.7207C21.8226 20.0135 21.8226 20.4878 21.5301 20.7807C21.2373 21.0731 20.7629 21.0731 20.4701 20.7807L17.6801 17.9907C15.04 20.5968 11.094 21.3644 7.66933 19.9382ZM14.1691 18.6011C17.0547 17.4036 18.9342 14.5849 18.9301 11.4607L18.8901 11.4607C18.8847 7.22037 15.4603 3.77812 11.2201 3.75066C8.09586 3.74662 5.27717 5.62605 4.0797 8.51172C2.88223 11.3974 3.54208 14.7203 5.75127 16.9295C7.96046 19.1387 11.2834 19.7986 14.1691 18.6011Z" fill="black"/>
</svg>
